<mxfile host="app.diagrams.net" agent="Mozilla/5.0 (Windows NT 10.0; Win64; x64) AppleWebKit/537.36 (KHTML, like Gecko) Chrome/140.0.0.0 Safari/537.36" version="28.2.5">
  <diagram name="Page-1" id="B8ATGKGUCtfHbsjk2nlE">
    <mxGraphModel dx="1097" dy="479" grid="1" gridSize="10" guides="1" tooltips="1" connect="1" arrows="1" fold="1" page="1" pageScale="1" pageWidth="850" pageHeight="1100" math="0" shadow="0">
      <root>
        <mxCell id="0" />
        <mxCell id="1" parent="0" />
        <mxCell id="2PGb_5sdSbK1ZhWCOYF--1" value="" style="edgeStyle=orthogonalEdgeStyle;rounded=0;orthogonalLoop=1;jettySize=auto;html=1;" edge="1" parent="1" source="2PGb_5sdSbK1ZhWCOYF--2" target="2PGb_5sdSbK1ZhWCOYF--4">
          <mxGeometry relative="1" as="geometry" />
        </mxCell>
        <mxCell id="2PGb_5sdSbK1ZhWCOYF--2" value="START" style="strokeWidth=2;html=1;shape=mxgraph.flowchart.terminator;whiteSpace=wrap;fontSize=14;" vertex="1" parent="1">
          <mxGeometry x="418" y="50" width="105" height="50" as="geometry" />
        </mxCell>
        <mxCell id="2PGb_5sdSbK1ZhWCOYF--3" value="" style="edgeStyle=orthogonalEdgeStyle;rounded=0;orthogonalLoop=1;jettySize=auto;html=1;" edge="1" parent="1" source="2PGb_5sdSbK1ZhWCOYF--4" target="2PGb_5sdSbK1ZhWCOYF--6">
          <mxGeometry relative="1" as="geometry" />
        </mxCell>
        <mxCell id="2PGb_5sdSbK1ZhWCOYF--4" value="define matrix (or&lt;div&gt;augmented matrix)&lt;/div&gt;" style="verticalLabelPosition=middle;verticalAlign=middle;html=1;shape=hexagon;perimeter=hexagonPerimeter2;arcSize=6;size=0.27;labelPosition=center;align=center;fontSize=14;" vertex="1" parent="1">
          <mxGeometry x="385.5" y="150" width="170" height="80" as="geometry" />
        </mxCell>
        <mxCell id="2PGb_5sdSbK1ZhWCOYF--5" value="" style="edgeStyle=orthogonalEdgeStyle;rounded=0;orthogonalLoop=1;jettySize=auto;html=1;" edge="1" parent="1" source="2PGb_5sdSbK1ZhWCOYF--6" target="2PGb_5sdSbK1ZhWCOYF--11">
          <mxGeometry relative="1" as="geometry" />
        </mxCell>
        <mxCell id="2PGb_5sdSbK1ZhWCOYF--6" value="r = 0&lt;div&gt;m = row size&lt;/div&gt;&lt;div&gt;n = col size&lt;/div&gt;" style="verticalLabelPosition=middle;verticalAlign=middle;html=1;shape=hexagon;perimeter=hexagonPerimeter2;arcSize=6;size=0.27;labelPosition=center;align=center;fontSize=14;" vertex="1" parent="1">
          <mxGeometry x="385.5" y="280" width="170" height="80" as="geometry" />
        </mxCell>
        <mxCell id="2PGb_5sdSbK1ZhWCOYF--7" value="" style="edgeStyle=orthogonalEdgeStyle;rounded=0;orthogonalLoop=1;jettySize=auto;html=1;" edge="1" parent="1" source="2PGb_5sdSbK1ZhWCOYF--11" target="2PGb_5sdSbK1ZhWCOYF--13">
          <mxGeometry relative="1" as="geometry" />
        </mxCell>
        <mxCell id="2PGb_5sdSbK1ZhWCOYF--8" value="&lt;font style=&quot;font-size: 14px;&quot;&gt;TRUE&lt;/font&gt;" style="edgeLabel;html=1;align=center;verticalAlign=middle;resizable=0;points=[];" vertex="1" connectable="0" parent="2PGb_5sdSbK1ZhWCOYF--7">
          <mxGeometry x="-0.2715" relative="1" as="geometry">
            <mxPoint as="offset" />
          </mxGeometry>
        </mxCell>
        <mxCell id="2PGb_5sdSbK1ZhWCOYF--11" value="c = 0&lt;div&gt;c &amp;lt; n?&lt;/div&gt;" style="strokeWidth=2;html=1;shape=mxgraph.flowchart.decision;whiteSpace=wrap;fontSize=14;" vertex="1" parent="1">
          <mxGeometry x="393.93000000000006" y="410" width="153.13" height="140" as="geometry" />
        </mxCell>
        <mxCell id="2PGb_5sdSbK1ZhWCOYF--12" value="" style="edgeStyle=orthogonalEdgeStyle;rounded=0;orthogonalLoop=1;jettySize=auto;html=1;" edge="1" parent="1" source="2PGb_5sdSbK1ZhWCOYF--13" target="2PGb_5sdSbK1ZhWCOYF--16">
          <mxGeometry relative="1" as="geometry" />
        </mxCell>
        <mxCell id="2PGb_5sdSbK1ZhWCOYF--13" value="pivot = -1" style="rounded=1;whiteSpace=wrap;html=1;absoluteArcSize=1;arcSize=0;strokeWidth=2;fontSize=14;" vertex="1" parent="1">
          <mxGeometry x="390.5" y="600" width="160" height="80" as="geometry" />
        </mxCell>
        <mxCell id="2PGb_5sdSbK1ZhWCOYF--14" value="" style="edgeStyle=orthogonalEdgeStyle;rounded=0;orthogonalLoop=1;jettySize=auto;html=1;" edge="1" parent="1" source="2PGb_5sdSbK1ZhWCOYF--16" target="2PGb_5sdSbK1ZhWCOYF--19">
          <mxGeometry relative="1" as="geometry" />
        </mxCell>
        <mxCell id="2PGb_5sdSbK1ZhWCOYF--15" value="&lt;font style=&quot;font-size: 14px;&quot;&gt;TRUE&lt;/font&gt;" style="edgeLabel;html=1;align=center;verticalAlign=middle;resizable=0;points=[];" vertex="1" connectable="0" parent="2PGb_5sdSbK1ZhWCOYF--14">
          <mxGeometry x="-0.096" relative="1" as="geometry">
            <mxPoint as="offset" />
          </mxGeometry>
        </mxCell>
        <mxCell id="2PGb_5sdSbK1ZhWCOYF--16" value="i = r&lt;div&gt;i &amp;lt; m?&lt;/div&gt;" style="strokeWidth=2;html=1;shape=mxgraph.flowchart.decision;whiteSpace=wrap;fontSize=14;" vertex="1" parent="1">
          <mxGeometry x="393.93000000000006" y="730" width="153.13" height="140" as="geometry" />
        </mxCell>
        <mxCell id="2PGb_5sdSbK1ZhWCOYF--17" value="" style="edgeStyle=orthogonalEdgeStyle;rounded=0;orthogonalLoop=1;jettySize=auto;html=1;" edge="1" parent="1" source="2PGb_5sdSbK1ZhWCOYF--19" target="2PGb_5sdSbK1ZhWCOYF--21">
          <mxGeometry relative="1" as="geometry" />
        </mxCell>
        <mxCell id="2PGb_5sdSbK1ZhWCOYF--18" value="&lt;font style=&quot;font-size: 14px;&quot;&gt;TRUE&lt;/font&gt;" style="edgeLabel;html=1;align=center;verticalAlign=middle;resizable=0;points=[];" vertex="1" connectable="0" parent="2PGb_5sdSbK1ZhWCOYF--17">
          <mxGeometry x="-0.1869" relative="1" as="geometry">
            <mxPoint as="offset" />
          </mxGeometry>
        </mxCell>
        <mxCell id="2PGb_5sdSbK1ZhWCOYF--19" value="matrix[i][c] != 0?" style="strokeWidth=2;html=1;shape=mxgraph.flowchart.decision;whiteSpace=wrap;fontSize=14;" vertex="1" parent="1">
          <mxGeometry x="393.93000000000006" y="920" width="153.13" height="140" as="geometry" />
        </mxCell>
        <mxCell id="2PGb_5sdSbK1ZhWCOYF--20" value="" style="edgeStyle=orthogonalEdgeStyle;rounded=0;orthogonalLoop=1;jettySize=auto;html=1;" edge="1" parent="1" source="2PGb_5sdSbK1ZhWCOYF--21" target="2PGb_5sdSbK1ZhWCOYF--28">
          <mxGeometry relative="1" as="geometry" />
        </mxCell>
        <mxCell id="2PGb_5sdSbK1ZhWCOYF--21" value="pivot = i&lt;div&gt;break&lt;/div&gt;" style="rounded=1;whiteSpace=wrap;html=1;absoluteArcSize=1;arcSize=0;strokeWidth=2;fontSize=14;" vertex="1" parent="1">
          <mxGeometry x="390.5" y="1110" width="160" height="80" as="geometry" />
        </mxCell>
        <mxCell id="2PGb_5sdSbK1ZhWCOYF--22" style="edgeStyle=orthogonalEdgeStyle;rounded=0;orthogonalLoop=1;jettySize=auto;html=1;exitX=0;exitY=0.5;exitDx=0;exitDy=0;exitPerimeter=0;entryX=0;entryY=0.5;entryDx=0;entryDy=0;entryPerimeter=0;" edge="1" parent="1" source="2PGb_5sdSbK1ZhWCOYF--19" target="2PGb_5sdSbK1ZhWCOYF--16">
          <mxGeometry relative="1" as="geometry">
            <Array as="points">
              <mxPoint x="348" y="990" />
              <mxPoint x="348" y="800" />
            </Array>
          </mxGeometry>
        </mxCell>
        <mxCell id="2PGb_5sdSbK1ZhWCOYF--23" value="&lt;font style=&quot;font-size: 14px;&quot;&gt;FALSE&lt;/font&gt;" style="edgeLabel;html=1;align=center;verticalAlign=middle;resizable=0;points=[];" vertex="1" connectable="0" parent="2PGb_5sdSbK1ZhWCOYF--22">
          <mxGeometry x="-0.7172" relative="1" as="geometry">
            <mxPoint as="offset" />
          </mxGeometry>
        </mxCell>
        <mxCell id="2PGb_5sdSbK1ZhWCOYF--24" value="" style="edgeStyle=orthogonalEdgeStyle;rounded=0;orthogonalLoop=1;jettySize=auto;html=1;" edge="1" parent="1" source="2PGb_5sdSbK1ZhWCOYF--28" target="2PGb_5sdSbK1ZhWCOYF--31">
          <mxGeometry relative="1" as="geometry" />
        </mxCell>
        <mxCell id="2PGb_5sdSbK1ZhWCOYF--25" value="&lt;span style=&quot;font-size: 14px;&quot;&gt;TRUE&lt;/span&gt;" style="edgeLabel;html=1;align=center;verticalAlign=middle;resizable=0;points=[];" vertex="1" connectable="0" parent="2PGb_5sdSbK1ZhWCOYF--24">
          <mxGeometry x="0.2518" relative="1" as="geometry">
            <mxPoint as="offset" />
          </mxGeometry>
        </mxCell>
        <mxCell id="2PGb_5sdSbK1ZhWCOYF--26" value="" style="edgeStyle=orthogonalEdgeStyle;rounded=0;orthogonalLoop=1;jettySize=auto;html=1;" edge="1" parent="1" source="2PGb_5sdSbK1ZhWCOYF--28" target="2PGb_5sdSbK1ZhWCOYF--35">
          <mxGeometry relative="1" as="geometry" />
        </mxCell>
        <mxCell id="2PGb_5sdSbK1ZhWCOYF--27" value="&lt;span style=&quot;font-size: 14px;&quot;&gt;FALSE&lt;/span&gt;" style="edgeLabel;html=1;align=center;verticalAlign=middle;resizable=0;points=[];" vertex="1" connectable="0" parent="2PGb_5sdSbK1ZhWCOYF--26">
          <mxGeometry x="-0.1758" relative="1" as="geometry">
            <mxPoint as="offset" />
          </mxGeometry>
        </mxCell>
        <mxCell id="2PGb_5sdSbK1ZhWCOYF--28" value="pivot == -1?" style="strokeWidth=2;html=1;shape=mxgraph.flowchart.decision;whiteSpace=wrap;fontSize=14;" vertex="1" parent="1">
          <mxGeometry x="393.94000000000005" y="1240" width="153.13" height="140" as="geometry" />
        </mxCell>
        <mxCell id="2PGb_5sdSbK1ZhWCOYF--29" style="edgeStyle=orthogonalEdgeStyle;rounded=0;orthogonalLoop=1;jettySize=auto;html=1;exitX=1;exitY=0.5;exitDx=0;exitDy=0;exitPerimeter=0;entryX=1;entryY=0.5;entryDx=0;entryDy=0;entryPerimeter=0;" edge="1" parent="1" source="2PGb_5sdSbK1ZhWCOYF--16" target="2PGb_5sdSbK1ZhWCOYF--28">
          <mxGeometry relative="1" as="geometry">
            <Array as="points">
              <mxPoint x="588" y="800" />
              <mxPoint x="588" y="1310" />
            </Array>
          </mxGeometry>
        </mxCell>
        <mxCell id="2PGb_5sdSbK1ZhWCOYF--30" value="&lt;span style=&quot;font-size: 14px;&quot;&gt;FALSE&lt;/span&gt;" style="edgeLabel;html=1;align=center;verticalAlign=middle;resizable=0;points=[];" vertex="1" connectable="0" parent="2PGb_5sdSbK1ZhWCOYF--29">
          <mxGeometry x="-0.8955" y="-1" relative="1" as="geometry">
            <mxPoint as="offset" />
          </mxGeometry>
        </mxCell>
        <mxCell id="2PGb_5sdSbK1ZhWCOYF--31" value="continue&lt;div&gt;(to the next column)&lt;/div&gt;" style="rounded=1;whiteSpace=wrap;html=1;absoluteArcSize=1;arcSize=0;strokeWidth=2;fontSize=14;" vertex="1" parent="1">
          <mxGeometry x="168" y="1270" width="160" height="80" as="geometry" />
        </mxCell>
        <mxCell id="2PGb_5sdSbK1ZhWCOYF--32" style="edgeStyle=orthogonalEdgeStyle;rounded=0;orthogonalLoop=1;jettySize=auto;html=1;exitX=0.5;exitY=0;exitDx=0;exitDy=0;entryX=0;entryY=0.5;entryDx=0;entryDy=0;entryPerimeter=0;" edge="1" parent="1" source="2PGb_5sdSbK1ZhWCOYF--31" target="2PGb_5sdSbK1ZhWCOYF--11">
          <mxGeometry relative="1" as="geometry" />
        </mxCell>
        <mxCell id="2PGb_5sdSbK1ZhWCOYF--33" value="" style="edgeStyle=orthogonalEdgeStyle;rounded=0;orthogonalLoop=1;jettySize=auto;html=1;" edge="1" parent="1" source="2PGb_5sdSbK1ZhWCOYF--35" target="2PGb_5sdSbK1ZhWCOYF--37">
          <mxGeometry relative="1" as="geometry" />
        </mxCell>
        <mxCell id="2PGb_5sdSbK1ZhWCOYF--34" value="&lt;font style=&quot;font-size: 14px;&quot;&gt;TRUE&lt;/font&gt;" style="edgeLabel;html=1;align=center;verticalAlign=middle;resizable=0;points=[];" vertex="1" connectable="0" parent="2PGb_5sdSbK1ZhWCOYF--33">
          <mxGeometry x="-0.0874" relative="1" as="geometry">
            <mxPoint as="offset" />
          </mxGeometry>
        </mxCell>
        <mxCell id="2PGb_5sdSbK1ZhWCOYF--35" value="pivot != r?" style="strokeWidth=2;html=1;shape=mxgraph.flowchart.decision;whiteSpace=wrap;fontSize=14;" vertex="1" parent="1">
          <mxGeometry x="393.94000000000005" y="1430" width="153.13" height="140" as="geometry" />
        </mxCell>
        <mxCell id="2PGb_5sdSbK1ZhWCOYF--36" value="" style="edgeStyle=orthogonalEdgeStyle;rounded=0;orthogonalLoop=1;jettySize=auto;html=1;" edge="1" parent="1" source="2PGb_5sdSbK1ZhWCOYF--37" target="2PGb_5sdSbK1ZhWCOYF--40">
          <mxGeometry relative="1" as="geometry" />
        </mxCell>
        <mxCell id="2PGb_5sdSbK1ZhWCOYF--37" value="swap row-r and row-i" style="rounded=1;whiteSpace=wrap;html=1;absoluteArcSize=1;arcSize=0;strokeWidth=2;fontSize=14;" vertex="1" parent="1">
          <mxGeometry x="390.49" y="1620" width="160" height="80" as="geometry" />
        </mxCell>
        <mxCell id="2PGb_5sdSbK1ZhWCOYF--38" value="" style="edgeStyle=orthogonalEdgeStyle;rounded=0;orthogonalLoop=1;jettySize=auto;html=1;" edge="1" parent="1" source="2PGb_5sdSbK1ZhWCOYF--40" target="2PGb_5sdSbK1ZhWCOYF--42">
          <mxGeometry relative="1" as="geometry" />
        </mxCell>
        <mxCell id="2PGb_5sdSbK1ZhWCOYF--39" value="&lt;span style=&quot;font-size: 14px;&quot;&gt;TRUE&lt;/span&gt;" style="edgeLabel;html=1;align=center;verticalAlign=middle;resizable=0;points=[];" vertex="1" connectable="0" parent="2PGb_5sdSbK1ZhWCOYF--38">
          <mxGeometry x="0.0161" relative="1" as="geometry">
            <mxPoint as="offset" />
          </mxGeometry>
        </mxCell>
        <mxCell id="2PGb_5sdSbK1ZhWCOYF--40" value="matrix[r][c] != 1?" style="strokeWidth=2;html=1;shape=mxgraph.flowchart.decision;whiteSpace=wrap;fontSize=14;" vertex="1" parent="1">
          <mxGeometry x="393.9200000000001" y="1750" width="153.13" height="140" as="geometry" />
        </mxCell>
        <mxCell id="2PGb_5sdSbK1ZhWCOYF--41" value="" style="edgeStyle=orthogonalEdgeStyle;rounded=0;orthogonalLoop=1;jettySize=auto;html=1;" edge="1" parent="1" source="2PGb_5sdSbK1ZhWCOYF--42" target="2PGb_5sdSbK1ZhWCOYF--47">
          <mxGeometry relative="1" as="geometry" />
        </mxCell>
        <mxCell id="2PGb_5sdSbK1ZhWCOYF--42" value="make matrix[r][c] equal&lt;div&gt;to 1 with scalar&lt;/div&gt;&lt;div&gt;multiplication&lt;/div&gt;" style="rounded=1;whiteSpace=wrap;html=1;absoluteArcSize=1;arcSize=0;strokeWidth=2;fontSize=14;" vertex="1" parent="1">
          <mxGeometry x="390.51" y="1940" width="160" height="80" as="geometry" />
        </mxCell>
        <mxCell id="2PGb_5sdSbK1ZhWCOYF--43" value="" style="edgeStyle=orthogonalEdgeStyle;rounded=0;orthogonalLoop=1;jettySize=auto;html=1;" edge="1" parent="1" source="2PGb_5sdSbK1ZhWCOYF--47" target="2PGb_5sdSbK1ZhWCOYF--50">
          <mxGeometry relative="1" as="geometry" />
        </mxCell>
        <mxCell id="2PGb_5sdSbK1ZhWCOYF--44" value="&lt;span style=&quot;font-size: 14px;&quot;&gt;TRUE&lt;/span&gt;" style="edgeLabel;html=1;align=center;verticalAlign=middle;resizable=0;points=[];" vertex="1" connectable="0" parent="2PGb_5sdSbK1ZhWCOYF--43">
          <mxGeometry x="-0.12" y="-1" relative="1" as="geometry">
            <mxPoint as="offset" />
          </mxGeometry>
        </mxCell>
        <mxCell id="2PGb_5sdSbK1ZhWCOYF--45" style="edgeStyle=orthogonalEdgeStyle;rounded=0;orthogonalLoop=1;jettySize=auto;html=1;exitX=1;exitY=0.5;exitDx=0;exitDy=0;exitPerimeter=0;entryX=1;entryY=0.5;entryDx=0;entryDy=0;" edge="1" parent="1" source="2PGb_5sdSbK1ZhWCOYF--47" target="2PGb_5sdSbK1ZhWCOYF--55">
          <mxGeometry relative="1" as="geometry">
            <Array as="points">
              <mxPoint x="628" y="2140" />
              <mxPoint x="628" y="2620" />
            </Array>
          </mxGeometry>
        </mxCell>
        <mxCell id="2PGb_5sdSbK1ZhWCOYF--46" value="&lt;span style=&quot;font-size: 14px;&quot;&gt;FALSE&lt;/span&gt;" style="edgeLabel;html=1;align=center;verticalAlign=middle;resizable=0;points=[];" vertex="1" connectable="0" parent="2PGb_5sdSbK1ZhWCOYF--45">
          <mxGeometry x="-0.894" y="1" relative="1" as="geometry">
            <mxPoint as="offset" />
          </mxGeometry>
        </mxCell>
        <mxCell id="2PGb_5sdSbK1ZhWCOYF--47" value="j = r + 1&lt;div&gt;j &amp;lt; m?&lt;/div&gt;" style="strokeWidth=2;html=1;shape=mxgraph.flowchart.decision;whiteSpace=wrap;fontSize=14;" vertex="1" parent="1">
          <mxGeometry x="393.9200000000001" y="2070" width="153.13" height="140" as="geometry" />
        </mxCell>
        <mxCell id="2PGb_5sdSbK1ZhWCOYF--48" value="" style="edgeStyle=orthogonalEdgeStyle;rounded=0;orthogonalLoop=1;jettySize=auto;html=1;" edge="1" parent="1" source="2PGb_5sdSbK1ZhWCOYF--50" target="2PGb_5sdSbK1ZhWCOYF--51">
          <mxGeometry relative="1" as="geometry" />
        </mxCell>
        <mxCell id="2PGb_5sdSbK1ZhWCOYF--49" value="&lt;font style=&quot;font-size: 14px;&quot;&gt;TRUE&lt;/font&gt;" style="edgeLabel;html=1;align=center;verticalAlign=middle;resizable=0;points=[];" vertex="1" connectable="0" parent="2PGb_5sdSbK1ZhWCOYF--48">
          <mxGeometry x="-0.0218" y="-1" relative="1" as="geometry">
            <mxPoint as="offset" />
          </mxGeometry>
        </mxCell>
        <mxCell id="2PGb_5sdSbK1ZhWCOYF--50" value="matrix[j][c] != 0?" style="strokeWidth=2;html=1;shape=mxgraph.flowchart.decision;whiteSpace=wrap;fontSize=14;" vertex="1" parent="1">
          <mxGeometry x="393.9200000000001" y="2260" width="153.13" height="140" as="geometry" />
        </mxCell>
        <mxCell id="2PGb_5sdSbK1ZhWCOYF--51" value="make matrix[j][c] equal&lt;div&gt;to 0 with addition&lt;/div&gt;&lt;div&gt;with multiples&lt;/div&gt;" style="rounded=1;whiteSpace=wrap;html=1;absoluteArcSize=1;arcSize=0;strokeWidth=2;fontSize=14;" vertex="1" parent="1">
          <mxGeometry x="390.51" y="2450" width="160" height="80" as="geometry" />
        </mxCell>
        <mxCell id="2PGb_5sdSbK1ZhWCOYF--52" style="edgeStyle=orthogonalEdgeStyle;rounded=0;orthogonalLoop=1;jettySize=auto;html=1;exitX=0;exitY=0.5;exitDx=0;exitDy=0;exitPerimeter=0;entryX=0;entryY=0.5;entryDx=0;entryDy=0;entryPerimeter=0;" edge="1" parent="1" source="2PGb_5sdSbK1ZhWCOYF--50" target="2PGb_5sdSbK1ZhWCOYF--47">
          <mxGeometry relative="1" as="geometry">
            <Array as="points">
              <mxPoint x="348" y="2330" />
              <mxPoint x="348" y="2140" />
            </Array>
          </mxGeometry>
        </mxCell>
        <mxCell id="2PGb_5sdSbK1ZhWCOYF--53" value="&lt;font style=&quot;font-size: 14px;&quot;&gt;FALSE&lt;/font&gt;" style="edgeLabel;html=1;align=center;verticalAlign=middle;resizable=0;points=[];" vertex="1" connectable="0" parent="2PGb_5sdSbK1ZhWCOYF--52">
          <mxGeometry x="-0.7942" y="-1" relative="1" as="geometry">
            <mxPoint as="offset" />
          </mxGeometry>
        </mxCell>
        <mxCell id="2PGb_5sdSbK1ZhWCOYF--54" style="edgeStyle=orthogonalEdgeStyle;rounded=0;orthogonalLoop=1;jettySize=auto;html=1;exitX=0;exitY=0.5;exitDx=0;exitDy=0;entryX=0;entryY=0.5;entryDx=0;entryDy=0;entryPerimeter=0;" edge="1" parent="1" source="2PGb_5sdSbK1ZhWCOYF--51" target="2PGb_5sdSbK1ZhWCOYF--47">
          <mxGeometry relative="1" as="geometry">
            <Array as="points">
              <mxPoint x="308" y="2490" />
              <mxPoint x="308" y="2140" />
            </Array>
          </mxGeometry>
        </mxCell>
        <mxCell id="2PGb_5sdSbK1ZhWCOYF--55" value="increment r" style="rounded=1;whiteSpace=wrap;html=1;absoluteArcSize=1;arcSize=0;strokeWidth=2;fontSize=14;" vertex="1" parent="1">
          <mxGeometry x="390.51" y="2580" width="160" height="80" as="geometry" />
        </mxCell>
        <mxCell id="2PGb_5sdSbK1ZhWCOYF--56" style="edgeStyle=orthogonalEdgeStyle;rounded=0;orthogonalLoop=1;jettySize=auto;html=1;exitX=0;exitY=0.5;exitDx=0;exitDy=0;entryX=0;entryY=0.5;entryDx=0;entryDy=0;entryPerimeter=0;" edge="1" parent="1" source="2PGb_5sdSbK1ZhWCOYF--55" target="2PGb_5sdSbK1ZhWCOYF--11">
          <mxGeometry relative="1" as="geometry">
            <Array as="points">
              <mxPoint x="108" y="2620" />
              <mxPoint x="108" y="480" />
            </Array>
          </mxGeometry>
        </mxCell>
        <mxCell id="2PGb_5sdSbK1ZhWCOYF--63" value="" style="edgeStyle=orthogonalEdgeStyle;rounded=0;orthogonalLoop=1;jettySize=auto;html=1;" edge="1" parent="1" source="2PGb_5sdSbK1ZhWCOYF--58" target="2PGb_5sdSbK1ZhWCOYF--62">
          <mxGeometry relative="1" as="geometry" />
        </mxCell>
        <mxCell id="2PGb_5sdSbK1ZhWCOYF--58" value="c = n - 1&lt;div&gt;c &amp;gt;= 0?&lt;/div&gt;" style="strokeWidth=2;html=1;shape=mxgraph.flowchart.decision;whiteSpace=wrap;fontSize=14;" vertex="1" parent="1">
          <mxGeometry x="1130" y="410" width="153.13" height="140" as="geometry" />
        </mxCell>
        <mxCell id="2PGb_5sdSbK1ZhWCOYF--59" style="edgeStyle=orthogonalEdgeStyle;rounded=0;orthogonalLoop=1;jettySize=auto;html=1;exitX=1;exitY=0.5;exitDx=0;exitDy=0;exitPerimeter=0;entryX=0;entryY=0.5;entryDx=0;entryDy=0;entryPerimeter=0;" edge="1" parent="1" source="2PGb_5sdSbK1ZhWCOYF--11" target="2PGb_5sdSbK1ZhWCOYF--58">
          <mxGeometry relative="1" as="geometry" />
        </mxCell>
        <mxCell id="2PGb_5sdSbK1ZhWCOYF--61" value="&lt;span style=&quot;font-size: 14px;&quot;&gt;FALSE&lt;/span&gt;" style="edgeLabel;html=1;align=center;verticalAlign=middle;resizable=0;points=[];" vertex="1" connectable="0" parent="2PGb_5sdSbK1ZhWCOYF--59">
          <mxGeometry x="-0.0981" relative="1" as="geometry">
            <mxPoint as="offset" />
          </mxGeometry>
        </mxCell>
        <mxCell id="2PGb_5sdSbK1ZhWCOYF--65" value="" style="edgeStyle=orthogonalEdgeStyle;rounded=0;orthogonalLoop=1;jettySize=auto;html=1;" edge="1" parent="1" source="2PGb_5sdSbK1ZhWCOYF--62" target="2PGb_5sdSbK1ZhWCOYF--64">
          <mxGeometry relative="1" as="geometry" />
        </mxCell>
        <mxCell id="2PGb_5sdSbK1ZhWCOYF--62" value="pivot = -1" style="rounded=1;whiteSpace=wrap;html=1;absoluteArcSize=1;arcSize=0;strokeWidth=2;fontSize=14;" vertex="1" parent="1">
          <mxGeometry x="1126.5700000000002" y="600" width="160" height="80" as="geometry" />
        </mxCell>
        <mxCell id="2PGb_5sdSbK1ZhWCOYF--67" value="" style="edgeStyle=orthogonalEdgeStyle;rounded=0;orthogonalLoop=1;jettySize=auto;html=1;" edge="1" parent="1" source="2PGb_5sdSbK1ZhWCOYF--64" target="2PGb_5sdSbK1ZhWCOYF--66">
          <mxGeometry relative="1" as="geometry" />
        </mxCell>
        <mxCell id="2PGb_5sdSbK1ZhWCOYF--71" value="&lt;span style=&quot;font-size: 14px;&quot;&gt;TRUE&lt;/span&gt;" style="edgeLabel;html=1;align=center;verticalAlign=middle;resizable=0;points=[];" vertex="1" connectable="0" parent="2PGb_5sdSbK1ZhWCOYF--67">
          <mxGeometry x="-0.1031" relative="1" as="geometry">
            <mxPoint as="offset" />
          </mxGeometry>
        </mxCell>
        <mxCell id="2PGb_5sdSbK1ZhWCOYF--64" value="i = r&lt;div&gt;i &amp;lt; m?&lt;/div&gt;" style="strokeWidth=2;html=1;shape=mxgraph.flowchart.decision;whiteSpace=wrap;fontSize=14;" vertex="1" parent="1">
          <mxGeometry x="1130" y="730" width="153.13" height="140" as="geometry" />
        </mxCell>
        <mxCell id="2PGb_5sdSbK1ZhWCOYF--69" value="" style="edgeStyle=orthogonalEdgeStyle;rounded=0;orthogonalLoop=1;jettySize=auto;html=1;" edge="1" parent="1" source="2PGb_5sdSbK1ZhWCOYF--66" target="2PGb_5sdSbK1ZhWCOYF--68">
          <mxGeometry relative="1" as="geometry" />
        </mxCell>
        <mxCell id="2PGb_5sdSbK1ZhWCOYF--70" value="&lt;font style=&quot;font-size: 14px;&quot;&gt;TRUE&lt;/font&gt;" style="edgeLabel;html=1;align=center;verticalAlign=middle;resizable=0;points=[];" vertex="1" connectable="0" parent="2PGb_5sdSbK1ZhWCOYF--69">
          <mxGeometry x="-0.0671" relative="1" as="geometry">
            <mxPoint as="offset" />
          </mxGeometry>
        </mxCell>
        <mxCell id="2PGb_5sdSbK1ZhWCOYF--66" value="matrix[i][c] == 1?" style="strokeWidth=2;html=1;shape=mxgraph.flowchart.decision;whiteSpace=wrap;fontSize=14;" vertex="1" parent="1">
          <mxGeometry x="1130" y="920" width="153.13" height="140" as="geometry" />
        </mxCell>
        <mxCell id="2PGb_5sdSbK1ZhWCOYF--77" value="" style="edgeStyle=orthogonalEdgeStyle;rounded=0;orthogonalLoop=1;jettySize=auto;html=1;" edge="1" parent="1" source="2PGb_5sdSbK1ZhWCOYF--68" target="2PGb_5sdSbK1ZhWCOYF--76">
          <mxGeometry relative="1" as="geometry" />
        </mxCell>
        <mxCell id="2PGb_5sdSbK1ZhWCOYF--68" value="pivot = i&lt;div&gt;break&lt;/div&gt;" style="rounded=1;whiteSpace=wrap;html=1;absoluteArcSize=1;arcSize=0;strokeWidth=2;fontSize=14;" vertex="1" parent="1">
          <mxGeometry x="1126.5700000000002" y="1110" width="160" height="80" as="geometry" />
        </mxCell>
        <mxCell id="2PGb_5sdSbK1ZhWCOYF--72" style="edgeStyle=orthogonalEdgeStyle;rounded=0;orthogonalLoop=1;jettySize=auto;html=1;exitX=0;exitY=0.5;exitDx=0;exitDy=0;exitPerimeter=0;entryX=0;entryY=0.5;entryDx=0;entryDy=0;entryPerimeter=0;" edge="1" parent="1" source="2PGb_5sdSbK1ZhWCOYF--66" target="2PGb_5sdSbK1ZhWCOYF--64">
          <mxGeometry relative="1" as="geometry">
            <Array as="points">
              <mxPoint x="1060" y="990" />
              <mxPoint x="1060" y="800" />
            </Array>
          </mxGeometry>
        </mxCell>
        <mxCell id="2PGb_5sdSbK1ZhWCOYF--74" value="&lt;font style=&quot;font-size: 14px;&quot;&gt;FALSE&lt;/font&gt;" style="edgeLabel;html=1;align=center;verticalAlign=middle;resizable=0;points=[];" vertex="1" connectable="0" parent="2PGb_5sdSbK1ZhWCOYF--72">
          <mxGeometry x="-0.6911" y="-1" relative="1" as="geometry">
            <mxPoint as="offset" />
          </mxGeometry>
        </mxCell>
        <mxCell id="2PGb_5sdSbK1ZhWCOYF--81" value="" style="edgeStyle=orthogonalEdgeStyle;rounded=0;orthogonalLoop=1;jettySize=auto;html=1;" edge="1" parent="1" source="2PGb_5sdSbK1ZhWCOYF--76" target="2PGb_5sdSbK1ZhWCOYF--80">
          <mxGeometry relative="1" as="geometry" />
        </mxCell>
        <mxCell id="2PGb_5sdSbK1ZhWCOYF--82" value="&lt;font style=&quot;font-size: 14px;&quot;&gt;TRUE&lt;/font&gt;" style="edgeLabel;html=1;align=center;verticalAlign=middle;resizable=0;points=[];" vertex="1" connectable="0" parent="2PGb_5sdSbK1ZhWCOYF--81">
          <mxGeometry x="0.3366" relative="1" as="geometry">
            <mxPoint as="offset" />
          </mxGeometry>
        </mxCell>
        <mxCell id="2PGb_5sdSbK1ZhWCOYF--85" value="" style="edgeStyle=orthogonalEdgeStyle;rounded=0;orthogonalLoop=1;jettySize=auto;html=1;" edge="1" parent="1" source="2PGb_5sdSbK1ZhWCOYF--76" target="2PGb_5sdSbK1ZhWCOYF--84">
          <mxGeometry relative="1" as="geometry" />
        </mxCell>
        <mxCell id="2PGb_5sdSbK1ZhWCOYF--76" value="pivot == -1?" style="strokeWidth=2;html=1;shape=mxgraph.flowchart.decision;whiteSpace=wrap;fontSize=14;" vertex="1" parent="1">
          <mxGeometry x="1130" y="1240" width="153.13" height="140" as="geometry" />
        </mxCell>
        <mxCell id="2PGb_5sdSbK1ZhWCOYF--78" style="edgeStyle=orthogonalEdgeStyle;rounded=0;orthogonalLoop=1;jettySize=auto;html=1;exitX=1;exitY=0.5;exitDx=0;exitDy=0;exitPerimeter=0;entryX=1;entryY=0.5;entryDx=0;entryDy=0;entryPerimeter=0;" edge="1" parent="1" source="2PGb_5sdSbK1ZhWCOYF--64" target="2PGb_5sdSbK1ZhWCOYF--76">
          <mxGeometry relative="1" as="geometry">
            <Array as="points">
              <mxPoint x="1370" y="800" />
              <mxPoint x="1370" y="1310" />
            </Array>
          </mxGeometry>
        </mxCell>
        <mxCell id="2PGb_5sdSbK1ZhWCOYF--79" value="&lt;font style=&quot;font-size: 14px;&quot;&gt;FALSE&lt;/font&gt;" style="edgeLabel;html=1;align=center;verticalAlign=middle;resizable=0;points=[];" vertex="1" connectable="0" parent="2PGb_5sdSbK1ZhWCOYF--78">
          <mxGeometry x="-0.8706" relative="1" as="geometry">
            <mxPoint as="offset" />
          </mxGeometry>
        </mxCell>
        <mxCell id="2PGb_5sdSbK1ZhWCOYF--80" value="continue&lt;div&gt;(to the next column)&lt;/div&gt;" style="rounded=1;whiteSpace=wrap;html=1;absoluteArcSize=1;arcSize=0;strokeWidth=2;fontSize=14;" vertex="1" parent="1">
          <mxGeometry x="880" y="1270" width="160" height="80" as="geometry" />
        </mxCell>
        <mxCell id="2PGb_5sdSbK1ZhWCOYF--83" style="edgeStyle=orthogonalEdgeStyle;rounded=0;orthogonalLoop=1;jettySize=auto;html=1;exitX=0.5;exitY=0;exitDx=0;exitDy=0;entryX=0;entryY=0.5;entryDx=0;entryDy=0;entryPerimeter=0;" edge="1" parent="1" source="2PGb_5sdSbK1ZhWCOYF--80" target="2PGb_5sdSbK1ZhWCOYF--58">
          <mxGeometry relative="1" as="geometry" />
        </mxCell>
        <mxCell id="2PGb_5sdSbK1ZhWCOYF--88" value="" style="edgeStyle=orthogonalEdgeStyle;rounded=0;orthogonalLoop=1;jettySize=auto;html=1;" edge="1" parent="1" source="2PGb_5sdSbK1ZhWCOYF--84" target="2PGb_5sdSbK1ZhWCOYF--87">
          <mxGeometry relative="1" as="geometry" />
        </mxCell>
        <mxCell id="2PGb_5sdSbK1ZhWCOYF--90" value="&lt;font style=&quot;font-size: 14px;&quot;&gt;TRUE&lt;/font&gt;" style="edgeLabel;html=1;align=center;verticalAlign=middle;resizable=0;points=[];" vertex="1" connectable="0" parent="2PGb_5sdSbK1ZhWCOYF--88">
          <mxGeometry x="-0.1531" relative="1" as="geometry">
            <mxPoint as="offset" />
          </mxGeometry>
        </mxCell>
        <mxCell id="2PGb_5sdSbK1ZhWCOYF--84" value="j = pivot - 1&lt;div&gt;j &amp;gt;= 0?&lt;/div&gt;" style="strokeWidth=2;html=1;shape=mxgraph.flowchart.decision;whiteSpace=wrap;fontSize=14;" vertex="1" parent="1">
          <mxGeometry x="1130.0000000000002" y="1430" width="153.13" height="140" as="geometry" />
        </mxCell>
        <mxCell id="2PGb_5sdSbK1ZhWCOYF--95" value="" style="edgeStyle=orthogonalEdgeStyle;rounded=0;orthogonalLoop=1;jettySize=auto;html=1;" edge="1" parent="1" source="2PGb_5sdSbK1ZhWCOYF--86" target="2PGb_5sdSbK1ZhWCOYF--94">
          <mxGeometry relative="1" as="geometry" />
        </mxCell>
        <mxCell id="2PGb_5sdSbK1ZhWCOYF--86" value="make matrix[j][c] equal&lt;div&gt;to 0 with addition&lt;/div&gt;&lt;div&gt;with multiples&lt;/div&gt;" style="rounded=1;whiteSpace=wrap;html=1;absoluteArcSize=1;arcSize=0;strokeWidth=2;fontSize=14;" vertex="1" parent="1">
          <mxGeometry x="1126.57" y="1830" width="160" height="80" as="geometry" />
        </mxCell>
        <mxCell id="2PGb_5sdSbK1ZhWCOYF--89" value="" style="edgeStyle=orthogonalEdgeStyle;rounded=0;orthogonalLoop=1;jettySize=auto;html=1;" edge="1" parent="1" source="2PGb_5sdSbK1ZhWCOYF--87" target="2PGb_5sdSbK1ZhWCOYF--86">
          <mxGeometry relative="1" as="geometry" />
        </mxCell>
        <mxCell id="2PGb_5sdSbK1ZhWCOYF--91" value="&lt;font style=&quot;font-size: 14px;&quot;&gt;TRUE&lt;/font&gt;" style="edgeLabel;html=1;align=center;verticalAlign=middle;resizable=0;points=[];" vertex="1" connectable="0" parent="2PGb_5sdSbK1ZhWCOYF--89">
          <mxGeometry x="-0.016" relative="1" as="geometry">
            <mxPoint as="offset" />
          </mxGeometry>
        </mxCell>
        <mxCell id="2PGb_5sdSbK1ZhWCOYF--87" value="matrix[j][c] != 0?" style="strokeWidth=2;html=1;shape=mxgraph.flowchart.decision;whiteSpace=wrap;fontSize=14;" vertex="1" parent="1">
          <mxGeometry x="1130.0000000000002" y="1630" width="153.13" height="140" as="geometry" />
        </mxCell>
        <mxCell id="2PGb_5sdSbK1ZhWCOYF--92" style="edgeStyle=orthogonalEdgeStyle;rounded=0;orthogonalLoop=1;jettySize=auto;html=1;exitX=0;exitY=0.5;exitDx=0;exitDy=0;exitPerimeter=0;entryX=0;entryY=0.5;entryDx=0;entryDy=0;entryPerimeter=0;" edge="1" parent="1" source="2PGb_5sdSbK1ZhWCOYF--87" target="2PGb_5sdSbK1ZhWCOYF--84">
          <mxGeometry relative="1" as="geometry">
            <Array as="points">
              <mxPoint x="1060" y="1700" />
              <mxPoint x="1060" y="1500" />
            </Array>
          </mxGeometry>
        </mxCell>
        <mxCell id="2PGb_5sdSbK1ZhWCOYF--93" value="&lt;span style=&quot;font-size: 14px;&quot;&gt;FALSE&lt;/span&gt;" style="edgeLabel;html=1;align=center;verticalAlign=middle;resizable=0;points=[];" vertex="1" connectable="0" parent="2PGb_5sdSbK1ZhWCOYF--92">
          <mxGeometry x="-0.7328" y="-2" relative="1" as="geometry">
            <mxPoint as="offset" />
          </mxGeometry>
        </mxCell>
        <mxCell id="2PGb_5sdSbK1ZhWCOYF--97" value="" style="edgeStyle=orthogonalEdgeStyle;rounded=0;orthogonalLoop=1;jettySize=auto;html=1;" edge="1" parent="1" source="2PGb_5sdSbK1ZhWCOYF--94" target="2PGb_5sdSbK1ZhWCOYF--96">
          <mxGeometry relative="1" as="geometry" />
        </mxCell>
        <mxCell id="2PGb_5sdSbK1ZhWCOYF--94" value="backward_substitution()" style="verticalLabelPosition=middle;verticalAlign=middle;html=1;shape=process;whiteSpace=wrap;rounded=1;size=0.14;arcSize=6;align=center;labelPosition=center;" vertex="1" parent="1">
          <mxGeometry x="1119.86" y="1970" width="173.43" height="80" as="geometry" />
        </mxCell>
        <mxCell id="2PGb_5sdSbK1ZhWCOYF--99" value="" style="edgeStyle=orthogonalEdgeStyle;rounded=0;orthogonalLoop=1;jettySize=auto;html=1;" edge="1" parent="1" source="2PGb_5sdSbK1ZhWCOYF--96" target="2PGb_5sdSbK1ZhWCOYF--98">
          <mxGeometry relative="1" as="geometry" />
        </mxCell>
        <mxCell id="2PGb_5sdSbK1ZhWCOYF--96" value="return solution" style="rounded=1;whiteSpace=wrap;html=1;absoluteArcSize=1;arcSize=0;strokeWidth=2;fontSize=14;" vertex="1" parent="1">
          <mxGeometry x="1126.57" y="2110" width="160" height="80" as="geometry" />
        </mxCell>
        <mxCell id="2PGb_5sdSbK1ZhWCOYF--98" value="END" style="strokeWidth=2;html=1;shape=mxgraph.flowchart.terminator;whiteSpace=wrap;fontSize=14;" vertex="1" parent="1">
          <mxGeometry x="1154.07" y="2250" width="105" height="50" as="geometry" />
        </mxCell>
      </root>
    </mxGraphModel>
  </diagram>
</mxfile>
